# xmcd
#
# Track frame offsets:
#	150
#	11243
#	25468
#	35583
#	49387
#	62939
#	75613
#	87633
#	99688
#	110051
#	121546
#	131523
#	144621
#	154446
#	166759
#	178660
#	193712
#	205801
#
# Disc length: 2915 seconds
#
# Revision: 0
# Processed by: cddbd v1.5.2PL0 Copyright (c) Steve Scherf et al.
# Submitted via: EasyCDDAExtractor 16.0.8.2
#
DISCID=070b6112
DTITLE=Συλλογικός δίσκος - Όταν τα σλόου τα έλεγαν μπλουζ 4
DYEAR=2011
DGENRE=Ξένη σλόου
TTITLE0=Timi Yuro - Hurt
TTITLE1=Nat King Cole - When i fall in love
TTITLE2=The Chordettes - Eddie my love
TTITLE3=Johnnie Ray - Cry
TTITLE4=Sarah Vaughan - Misty
TTITLE5=The Platters - Twilight time
TTITLE6=Elvis Presley - Blue moon
TTITLE7=Billy Ward-The Dominoes - Rags to riches
TTITLE8=The Tune Weavers - Happy happy birthday baby
TTITLE9=Connie Francis - Among my souvenirs
TTITLE10=Billy Fury - Maybe tomorrow
TTITLE11=Lee Andrews-The Hearts - Long lonely nights
TTITLE12=LaVern Baker - Everybody's somebody's fool
TTITLE13=Paul Anka - Summer's gone
TTITLE14=Wynona Carr - Should i ever love again
TTITLE15=Ray Charles - Drown in my own tears
TTITLE16=The Platters - Wish it were me
TTITLE17=Jimmy Clanton And The Aces - Aletter to an angel
EXTD=
EXTT0=
EXTT1=
EXTT2=
EXTT3=
EXTT4=
EXTT5=
EXTT6=
EXTT7=
EXTT8=
EXTT9=
EXTT10=
EXTT11=
EXTT12=
EXTT13=
EXTT14=
EXTT15=
EXTT16=
EXTT17=
PLAYORDER=
